<svg width="257" height="60" viewBox="0 0 257 60" fill="none" xmlns="http://www.w3.org/2000/svg">
<path d="M7.70302 1.73473C6.79084 3.73583 6.57365 6.33048 7.10938 8.8912L7.41344 10.3327L7.10938 11.435C6.93563 12.0455 6.71844 13.1308 6.63157 13.86C6.31303 16.4377 6.99355 19.1341 8.32563 20.5756L8.97719 21.2709V33.5319V45.7759L11.4966 47.2682C12.8865 48.0992 14.9426 49.4898 16.0864 50.3886L18.1425 51.9996L17.1434 50.6769C15.8403 48.9641 13.7263 46.6747 12.0612 45.1314L10.7292 43.9104L10.7147 33.5149C10.7147 24.2895 10.7436 23.1363 10.9319 23.1363C11.6269 23.1363 15.5362 25.2052 17.1724 26.4432L18.1714 27.2063L17.404 26.3584C15.7824 24.5778 12.4811 22.3054 10.0197 21.2709C9.32468 20.9656 9.02062 20.7282 8.74552 20.2703C7.84781 18.7271 7.55823 15.9798 8.10844 13.9618C8.54281 12.3507 8.60073 12.2829 9.07854 12.8256C9.455 13.2665 9.46948 13.3513 9.46948 15.115C9.48396 16.8786 9.49843 16.9974 9.99072 18.0318C10.5699 19.2867 11.2938 19.982 12.3653 20.3212C13.7843 20.7621 17.7371 21.5931 17.8239 21.4744C17.8818 21.4066 17.8384 20.9995 17.7371 20.5417C17.6502 20.1008 17.6067 19.7446 17.6647 19.7446C17.8095 19.7446 18.6927 21.0165 19.2429 22.034L19.6917 22.865V21.6609C19.6917 19.4394 18.7506 16.7769 17.2737 14.8436C16.8249 14.2501 15.71 13.1308 14.8268 12.3338C11.5834 9.50171 9.0351 5.56735 8.54281 2.63353C8.18083 0.496765 8.23875 0.564598 7.70302 1.73473ZM8.10844 3.88846C8.10844 4.34634 9.35364 6.95794 10.1645 8.21287C11.2215 9.85784 12.901 11.7572 14.624 13.2495C16.2167 14.6401 16.8538 15.3863 17.5778 16.743C18.1135 17.7266 18.6782 19.1172 18.6782 19.4394C18.6782 19.5242 18.3017 19.2359 17.8529 18.778C16.2457 17.1669 14.2621 15.6237 10.7147 13.2495C9.35364 12.3507 8.19531 10.4683 7.74646 8.43333C7.48584 7.28015 7.45688 5.27905 7.68854 4.22763C7.83333 3.53233 8.10844 3.32883 8.10844 3.88846ZM11.9888 15.098C12.2205 15.2845 12.3074 15.522 12.3074 15.9459C12.3074 16.2851 12.3798 16.6921 12.4522 16.8617C12.6694 17.3365 13.625 17.5909 14.3345 17.3704C14.8847 17.2009 14.9571 17.2178 15.5652 17.7266C15.9272 18.0318 16.2167 18.3371 16.2167 18.4049C16.2167 18.5914 14.7109 18.778 13.9001 18.6932C12.4811 18.5236 11.4531 17.2178 11.4386 15.5389C11.4386 14.7588 11.511 14.691 11.9888 15.098Z" fill="#FF5C17"/>
<path d="M31.3474 1.36165C31.0579 3.4645 30.5221 4.99076 29.3348 7.09361C28.4371 8.65379 26.6128 10.8075 24.8463 12.3507C22.8482 14.0975 21.7333 15.522 20.9949 17.2856C20.2854 18.9476 19.9813 20.3212 19.9813 21.7627V22.848L20.546 21.8475C21.241 20.6265 21.965 19.6259 22.0518 19.7446C22.0953 19.7955 22.0518 20.1516 21.965 20.5417C21.8781 20.9317 21.8491 21.3048 21.8926 21.3726C21.9794 21.4574 24.354 20.9826 26.7431 20.389C29.0742 19.8125 30.3629 17.7096 30.2325 14.7249C30.1746 13.3343 30.1746 13.3004 30.58 12.8425C31.0723 12.2829 31.1302 12.3507 31.5646 13.9618C32.3465 16.8786 31.4343 20.6604 29.7837 21.4066C28.191 22.1188 25.4255 23.9164 24.0355 25.1374C22.1387 26.7993 21.5451 27.5455 22.9495 26.4941C24.6291 25.2222 27.7132 23.5433 28.9294 23.2211L29.3928 23.1024V33.5149V43.9274L28.6398 44.5888C27.1919 45.8776 24.5133 48.7266 23.326 50.2529C22.66 51.1008 22.1532 51.7961 22.1966 51.7961C22.2256 51.7961 23.1667 51.0839 24.2816 50.219C25.3965 49.3371 27.3946 47.9974 28.7267 47.2173L31.1302 45.8098V33.3453V20.8808L31.6515 20.2025C33.1428 18.2692 33.5048 15.1658 32.6361 11.6554L32.2741 10.197L32.5782 8.84033C33.0705 6.51702 32.8822 3.78671 32.0859 2.00607C31.4777 0.632435 31.4488 0.615475 31.3474 1.36165ZM32.1293 6.09306C32.1583 9.24733 30.8551 12.0794 28.7846 13.3852C26.2363 14.9793 23.5287 17.0821 21.936 18.6593C21.4148 19.185 20.9949 19.5242 20.9949 19.4224C20.9949 19.1172 21.5595 17.7096 22.0953 16.743C22.8337 15.3693 23.4418 14.6571 25.2662 13.046C28.0462 10.604 30.2036 7.61932 31.304 4.68551L31.7818 3.41362L31.9556 4.075C32.0424 4.43113 32.1293 5.34689 32.1293 6.09306ZM28.2634 15.0302C28.3792 15.4372 28.1041 16.8956 27.8001 17.4722C27.3512 18.3032 26.5693 18.7271 25.4544 18.7271C24.3975 18.7271 23.4563 18.5745 23.4563 18.3879C23.4563 18.3371 23.7459 18.0318 24.1079 17.7266C24.716 17.2178 24.7884 17.2009 25.3386 17.3704C26.0336 17.5909 26.8589 17.3874 27.163 16.9126C27.2643 16.743 27.3657 16.319 27.3657 15.9798C27.3657 15.522 27.4526 15.2845 27.6842 15.098C28.0752 14.7758 28.191 14.7588 28.2634 15.0302Z" fill="#FF5C17"/>
<path d="M40.6865 20.0838V21.2709H41.6276H42.5688V20.0838V18.8967H41.6276H40.6865V20.0838Z" fill="#FF5C17"/>
<path d="M43.0755 22.1018C43.0321 22.2714 43.0176 22.9328 43.0321 23.5603C43.0611 24.6795 43.0611 24.7135 42.5688 25.1883C42.0765 25.6801 42.0765 25.6801 40.006 25.6801H37.9355V28.6478V31.6155H40.4693H43.0031V29.1905V26.7654L43.481 26.2228C43.9443 25.697 44.0022 25.6801 45.1461 25.6801H46.3333V23.7299V21.7796H44.7551C43.3362 21.7796 43.1624 21.8136 43.0755 22.1018Z" fill="#FF5C17"/>
<path d="M5.79178 37.7884V50.2359L7.35552 50.3377C10.4251 50.5751 14.1607 51.5078 16.7814 52.7288C17.3027 52.9493 17.7371 53.1189 17.7805 53.068C17.8818 52.9663 15.9416 51.5417 14.6675 50.7956C13.0603 49.8459 10.7436 48.9471 9.06406 48.6079L7.60167 48.3027L7.55823 36.8218L7.52927 25.3409H6.66053H5.79178V37.7884Z" fill="#FF5C17"/>
<path d="M32.5782 36.7879C32.5782 45.8098 32.5347 48.2518 32.4044 48.3027C32.3031 48.3366 31.637 48.4892 30.9131 48.6588C29.0453 49.0489 26.801 49.9816 25.0635 51.05C23.659 51.9148 21.9794 53.1698 22.0663 53.2715C22.0953 53.3054 22.5876 53.085 23.1812 52.8136C25.744 51.5587 29.552 50.5751 32.694 50.3547L34.3157 50.2359V37.7884V25.3409H33.4469H32.5782V36.7879Z" fill="#FF5C17"/>
<path d="M1.59284 29.1057C1.31774 29.1905 0.926802 29.4279 0.753052 29.6314C-0.0288205 30.4624 0.000137732 30.1062 0.000137732 41.7228C0.000137732 52.5084 0.000137725 52.5084 0.318679 53.1698C0.521386 53.5937 0.854406 53.9498 1.23086 54.1703C1.81003 54.5095 2.08513 54.5095 9.35365 54.4756L16.8683 54.4247L15.9996 54.0516C14.6096 53.4581 12.1916 52.678 10.8595 52.3727C10.0342 52.2031 8.38355 52.0844 5.90762 52.0166L2.17201 51.9318V41.7737V31.6155H3.33034H4.48867V30.2589V28.9022L3.30138 28.9192C2.63534 28.9192 1.86795 29.0039 1.59284 29.1057Z" fill="#FF5C17"/>
<path d="M37.9354 43.1473V51.9657H34.9383C30.7393 51.9657 28.2779 52.4236 24.8318 53.7972L23.2391 54.4247L30.7393 54.4756C37.9065 54.5095 38.2829 54.4925 38.8911 54.1873C39.2675 53.9838 39.644 53.6276 39.8177 53.2885C40.0928 52.7458 40.1073 52.4575 40.1073 43.5204V34.3289H39.0214H37.9354V43.1473Z" fill="#FF5C17"/>
<path d="M18.6927 56.3579C18.5189 56.5614 18.3886 56.8667 18.3886 57.0532C18.3886 57.3755 18.2873 57.3924 16.2168 57.3924C14.2331 57.3924 14.0159 57.4263 13.7553 57.7316C13.5816 57.9351 13.4657 58.2912 13.4657 58.6643C13.4657 59.0374 13.5816 59.3935 13.7553 59.597C14.0304 59.9192 14.2331 59.9362 20.0248 59.9362C26.8444 59.9362 26.6417 59.9701 26.6417 58.6643C26.6417 57.4942 26.4101 57.3924 23.8617 57.3924C21.7333 57.3924 21.7188 57.3924 21.7188 57.0024C21.7188 56.2562 21.5161 56.1205 20.213 56.0697C19.1271 56.0018 18.9678 56.0357 18.6927 56.3579Z" fill="#FF5C17"/>
<path d="M53.0341 47V12.0909H66.8068C69.4545 12.0909 71.7102 12.5966 73.5739 13.608C75.4375 14.608 76.858 16 77.8352 17.7841C78.8239 19.5568 79.3182 21.6023 79.3182 23.9205C79.3182 26.2386 78.8182 28.2841 77.8182 30.0568C76.8182 31.8295 75.3693 33.2102 73.4716 34.1989C71.5852 35.1875 69.3011 35.6818 66.6193 35.6818H57.8409V29.767H65.4261C66.8466 29.767 68.017 29.5227 68.9375 29.0341C69.8693 28.5341 70.5625 27.8466 71.017 26.9716C71.483 26.0852 71.7159 25.0682 71.7159 23.9205C71.7159 22.7614 71.483 21.75 71.017 20.8864C70.5625 20.0114 69.8693 19.3352 68.9375 18.858C68.0057 18.3693 66.8239 18.125 65.392 18.125H60.4148V47H53.0341ZM91.1909 47.4261C88.9844 47.4261 87.0763 46.9574 85.4664 46.0199C83.866 45.0729 82.6302 43.7566 81.759 42.071C80.8878 40.3759 80.4522 38.411 80.4522 36.1761C80.4522 33.9223 80.8878 31.9527 81.759 30.267C82.6302 28.572 83.866 27.2557 85.4664 26.3182C87.0763 25.3712 88.9844 24.8977 91.1909 24.8977C93.3973 24.8977 95.3007 25.3712 96.9011 26.3182C98.5109 27.2557 99.7515 28.572 100.623 30.267C101.494 31.9527 101.929 33.9223 101.929 36.1761C101.929 38.411 101.494 40.3759 100.623 42.071C99.7515 43.7566 98.5109 45.0729 96.9011 46.0199C95.3007 46.9574 93.3973 47.4261 91.1909 47.4261ZM91.2193 42.7386C92.223 42.7386 93.0611 42.4545 93.7335 41.8864C94.4058 41.3087 94.9124 40.5227 95.2534 39.5284C95.6037 38.5341 95.7789 37.4025 95.7789 36.1335C95.7789 34.8646 95.6037 33.733 95.2534 32.7386C94.9124 31.7443 94.4058 30.9583 93.7335 30.3807C93.0611 29.803 92.223 29.5142 91.2193 29.5142C90.206 29.5142 89.3537 29.803 88.6624 30.3807C87.9806 30.9583 87.4645 31.7443 87.1141 32.7386C86.7732 33.733 86.6028 34.8646 86.6028 36.1335C86.6028 37.4025 86.7732 38.5341 87.1141 39.5284C87.4645 40.5227 87.9806 41.3087 88.6624 41.8864C89.3537 42.4545 90.206 42.7386 91.2193 42.7386ZM110.115 17.9091V47H104.064V17.9091H110.115ZM113.163 47V25.1818H119.214V47H113.163ZM116.202 22.3693C115.303 22.3693 114.531 22.071 113.887 21.4744C113.253 20.8684 112.935 20.1439 112.935 19.3011C112.935 18.4678 113.253 17.7528 113.887 17.1562C114.531 16.5502 115.303 16.2472 116.202 16.2472C117.102 16.2472 117.869 16.5502 118.503 17.1562C119.147 17.7528 119.469 18.4678 119.469 19.3011C119.469 20.1439 119.147 20.8684 118.503 21.4744C117.869 22.071 117.102 22.3693 116.202 22.3693Z" fill="#FF5C17"/>
<path d="M130.338 47V12.0909H144.315C146.884 12.0909 149.026 12.4716 150.742 13.233C152.457 13.9943 153.747 15.0511 154.611 16.4034C155.475 17.7443 155.906 19.2898 155.906 21.0398C155.906 22.4034 155.634 23.6023 155.088 24.6364C154.543 25.6591 153.793 26.5 152.838 27.1591C151.895 27.8068 150.815 28.267 149.6 28.5398V28.8807C150.929 28.9375 152.173 29.3125 153.332 30.0057C154.503 30.6989 155.452 31.6705 156.179 32.9205C156.906 34.1591 157.27 35.6364 157.27 37.3523C157.27 39.2045 156.81 40.858 155.889 42.3125C154.98 43.7557 153.634 44.8977 151.85 45.7386C150.065 46.5795 147.867 47 145.253 47H130.338ZM137.719 40.9659H143.736C145.793 40.9659 147.293 40.5739 148.236 39.7898C149.179 38.9943 149.651 37.9375 149.651 36.6193C149.651 35.6534 149.418 34.8011 148.952 34.0625C148.486 33.3239 147.821 32.7443 146.957 32.3239C146.105 31.9034 145.088 31.6932 143.906 31.6932H137.719V40.9659ZM137.719 26.6989H143.19C144.202 26.6989 145.1 26.5227 145.884 26.1705C146.679 25.8068 147.304 25.2955 147.759 24.6364C148.225 23.9773 148.457 23.1875 148.457 22.267C148.457 21.0057 148.009 19.9886 147.111 19.2159C146.225 18.4432 144.963 18.0568 143.327 18.0568H137.719V26.6989ZM169.151 47.4261C166.945 47.4261 165.037 46.9574 163.427 46.0199C161.826 45.0729 160.591 43.7566 159.719 42.071C158.848 40.3759 158.413 38.411 158.413 36.1761C158.413 33.9223 158.848 31.9527 159.719 30.267C160.591 28.572 161.826 27.2557 163.427 26.3182C165.037 25.3712 166.945 24.8977 169.151 24.8977C171.358 24.8977 173.261 25.3712 174.861 26.3182C176.471 27.2557 177.712 28.572 178.583 30.267C179.454 31.9527 179.89 33.9223 179.89 36.1761C179.89 38.411 179.454 40.3759 178.583 42.071C177.712 43.7566 176.471 45.0729 174.861 46.0199C173.261 46.9574 171.358 47.4261 169.151 47.4261ZM169.18 42.7386C170.183 42.7386 171.021 42.4545 171.694 41.8864C172.366 41.3087 172.873 40.5227 173.214 39.5284C173.564 38.5341 173.739 37.4025 173.739 36.1335C173.739 34.8646 173.564 33.733 173.214 32.7386C172.873 31.7443 172.366 30.9583 171.694 30.3807C171.021 29.803 170.183 29.5142 169.18 29.5142C168.166 29.5142 167.314 29.803 166.623 30.3807C165.941 30.9583 165.425 31.7443 165.074 32.7386C164.734 33.733 164.563 34.8646 164.563 36.1335C164.563 37.4025 164.734 38.5341 165.074 39.5284C165.425 40.5227 165.941 41.3087 166.623 41.8864C167.314 42.4545 168.166 42.7386 169.18 42.7386ZM191.882 47.4261C189.676 47.4261 187.768 46.9574 186.158 46.0199C184.558 45.0729 183.322 43.7566 182.451 42.071C181.579 40.3759 181.144 38.411 181.144 36.1761C181.144 33.9223 181.579 31.9527 182.451 30.267C183.322 28.572 184.558 27.2557 186.158 26.3182C187.768 25.3712 189.676 24.8977 191.882 24.8977C194.089 24.8977 195.992 25.3712 197.593 26.3182C199.202 27.2557 200.443 28.572 201.314 30.267C202.185 31.9527 202.621 33.9223 202.621 36.1761C202.621 38.411 202.185 40.3759 201.314 42.071C200.443 43.7566 199.202 45.0729 197.593 46.0199C195.992 46.9574 194.089 47.4261 191.882 47.4261ZM191.911 42.7386C192.915 42.7386 193.753 42.4545 194.425 41.8864C195.097 41.3087 195.604 40.5227 195.945 39.5284C196.295 38.5341 196.47 37.4025 196.47 36.1335C196.47 34.8646 196.295 33.733 195.945 32.7386C195.604 31.7443 195.097 30.9583 194.425 30.3807C193.753 29.803 192.915 29.5142 191.911 29.5142C190.898 29.5142 190.045 29.803 189.354 30.3807C188.672 30.9583 188.156 31.7443 187.806 32.7386C187.465 33.733 187.294 34.8646 187.294 36.1335C187.294 37.4025 187.465 38.5341 187.806 39.5284C188.156 40.5227 188.672 41.3087 189.354 41.8864C190.045 42.4545 190.898 42.7386 191.911 42.7386ZM210.239 40.7216L210.253 33.4631H211.134L218.122 25.1818H225.068L215.679 36.1477H214.244L210.239 40.7216ZM204.756 47V17.9091H210.807V47H204.756ZM218.392 47L211.972 37.4972L216.006 33.2216L225.48 47H218.392ZM244.39 31.4034L238.851 31.7443C238.756 31.2708 238.552 30.8447 238.24 30.4659C237.927 30.0777 237.515 29.7699 237.004 29.5426C236.502 29.3059 235.901 29.1875 235.2 29.1875C234.263 29.1875 233.472 29.3864 232.828 29.7841C232.184 30.1723 231.862 30.6932 231.862 31.3466C231.862 31.8674 232.07 32.3078 232.487 32.6676C232.904 33.0275 233.619 33.3163 234.632 33.5341L238.581 34.3295C240.702 34.7652 242.283 35.4659 243.325 36.4318C244.367 37.3977 244.888 38.6667 244.888 40.2386C244.888 41.6686 244.466 42.9233 243.623 44.0028C242.79 45.0824 241.644 45.9252 240.186 46.5312C238.737 47.1278 237.066 47.4261 235.172 47.4261C232.283 47.4261 229.982 46.8248 228.268 45.6222C226.564 44.41 225.565 42.7623 225.271 40.679L231.223 40.3665C231.403 41.2472 231.838 41.9195 232.53 42.3835C233.221 42.8381 234.106 43.0653 235.186 43.0653C236.246 43.0653 237.099 42.8617 237.743 42.4545C238.396 42.0379 238.727 41.5028 238.737 40.8494C238.727 40.3002 238.495 39.8504 238.041 39.5C237.586 39.1402 236.886 38.8655 235.939 38.6761L232.16 37.9233C230.03 37.4972 228.443 36.7585 227.402 35.7074C226.37 34.6562 225.853 33.3163 225.853 31.6875C225.853 30.286 226.232 29.0786 226.99 28.0653C227.757 27.0521 228.832 26.2708 230.214 25.7216C231.606 25.1723 233.235 24.8977 235.101 24.8977C237.856 24.8977 240.025 25.4801 241.606 26.6449C243.197 27.8097 244.125 29.3958 244.39 31.4034Z" fill="#375A7A"/>
</svg>
